<svg class="svg-icon" style="width: 1em; height: 1em;vertical-align: middle;fill: white;overflow: hidden;" viewBox="0 0 1024 1024" version="1.1" xmlns="http://www.w3.org/2000/svg"><path d="M819.2 174.08h-614.4a30.72 30.72 0 0 0-30.72 30.72v614.4a30.72 30.72 0 0 0 30.72 30.72h614.4a30.72 30.72 0 0 0 30.72-30.72v-614.4a30.72 30.72 0 0 0-30.72-30.72z m-433.95072 353.28a30.72 30.72 0 0 0 30.72-30.72V235.52h40.38656v261.12a30.72 30.72 0 0 0 30.72 30.72h4.46464V788.48H378.88v-261.12h6.36928z m147.23072 0h4.46464a30.72 30.72 0 0 0 30.72-30.72V235.52h40.38656v261.12a30.72 30.72 0 0 0 30.72 30.72h6.3488V788.48h-112.64v-261.12zM235.52 235.52h69.12v261.12a30.72 30.72 0 0 0 30.72 30.72H337.92V788.48h-102.4v-552.96z m552.96 552.96h-102.4v-261.12h2.56a30.72 30.72 0 0 0 30.72-30.72V235.52H788.48v552.96z"  /></svg>